<?xml version="1.0" encoding="utf-8"?>
<!-- Generator: Adobe Illustrator 20.1.0, SVG Export Plug-In . SVG Version: 6.00 Build 0)  -->
<svg version="1.1" id="Layer_1" xmlns="http://www.w3.org/2000/svg" xmlns:xlink="http://www.w3.org/1999/xlink" x="0px" y="0px"
	 viewBox="0 0 128 128" style="enable-background:new 0 0 128 128;" xml:space="preserve">
<style type="text/css">
	.st0{fill:#FFFFFF;}
</style>
<g>
	<path class="st0" d="M75.6,0.4c-21.2-3-33,12.9-26.6,27.1s28.1,12.3,30.9-3.9c4.9,8.1,7,17.3,8.7,25.4c1.6,10.3,1.6,21.6,0.5,31.9
		c-1.1,8.7-3.2,18.9-10.3,24.9c-5.4,5.4-14.6,6.5-21.6,3.2c-7.6-3.8-11.7-12.3-15.1-20.6c-3.4-8.3-6.8-17.6-8.5-35.7
		C32,34.7,34.3,16.1,41.5,5.3C15.3,12,2.5,38.4,2.6,64.2c0.1,16.2,4.3,32.5,15.1,44.3c11.9,13,28.7,19.5,46,19.5
		c16.2,0,33-5.4,44.3-17.3c11.9-12.4,16.8-29.7,17.3-46.5C126.4,35,107.9,4.9,75.6,0.4z"/>
</g>
</svg>
