<?xml version="1.0" encoding="utf-8"?>
<!-- Generator: Adobe Illustrator 20.1.0, SVG Export Plug-In . SVG Version: 6.00 Build 0)  -->
<svg version="1.1" id="Layer_1" xmlns="http://www.w3.org/2000/svg" xmlns:xlink="http://www.w3.org/1999/xlink" x="0px" y="0px"
	 viewBox="0 0 108.8 40.3" style="enable-background:new 0 0 108.8 40.3;" xml:space="preserve">
<style type="text/css">
	.st0{fill:#FFFFFF;}
</style>
<g>
	<path class="st0" d="M37.9,12.7c-4.6-0.6-7.1,2.8-5.8,5.9c1.4,3.1,6.1,2.7,6.7-0.8c1.1,1.8,1.5,3.7,1.9,5.5
		c0.3,2.2,0.3,4.7,0.1,6.9c-0.2,1.9-0.7,4.1-2.2,5.4c-1.2,1.2-3.2,1.4-4.7,0.7c-1.6-0.8-2.5-2.7-3.3-4.5c-0.7-1.8-1.5-3.8-1.8-7.7
		s0.2-7.9,1.7-10.3c-5.7,1.4-8.4,7.2-8.4,12.7c0,3.5,0.9,7,3.3,9.6c2.6,2.8,6.2,4.2,10,4.2c3.5,0,7.1-1.2,9.6-3.7
		c2.6-2.7,3.6-6.4,3.7-10.1C48.9,20.2,44.9,13.7,37.9,12.7z"/>
</g>
<path class="st0" d="M0,13.3c0.9,0,1.7-0.2,2.5-0.7c0.8-0.4,1.5-1,2.1-1.6s1.1-1.3,1.6-2.1c0.4-0.8,0.8-1.5,1-2.1H11v6.5h6.6v4
	L11,17.4c0,2.5,0,4.5,0,6.1s0,2.9,0,3.9s0,1.7,0,2.1s0,0.7,0,0.7c0,0.6,0,1.2,0.1,1.8c0.1,0.6,0.2,1.1,0.5,1.6
	c0.2,0.5,0.6,0.9,1,1.2s1,0.4,1.6,0.4c0.2,0,0.5,0,0.8-0.1s0.7-0.2,1.1-0.4c0.4-0.2,0.9-0.5,1.3-0.9c0.5-0.4,1-1,1.4-1.7l2.5,2.3
	c-0.9,1.4-1.9,2.5-2.8,3.2c-0.9,0.8-1.9,1.3-2.7,1.7s-1.7,0.6-2.4,0.6C12.7,40,12.1,40,11.6,40c-0.6,0-1.2,0-1.8-0.1
	c-0.6-0.1-1.2-0.3-1.8-0.5c-0.6-0.3-1.2-0.6-1.7-1.1c-0.5-0.5-1-1.1-1.4-1.8c-0.4-0.7-0.7-1.6-1-2.7c-0.2-1.1-0.4-2.3-0.4-3.8
	l0.1-12.4H0V13.3z"/>
<path class="st0" d="M78.1,31c0,0.3,0,0.6,0,0.9c0,0.4,0,0.7,0,1.1s0,0.8-0.1,1.3c0,0.4-0.1,0.8-0.1,1.2l3.4-0.2v4H67.7v-3.4
	c0.7,0,1.3-0.1,1.7-0.3c0.4-0.2,0.7-0.5,0.9-0.9c0.2-0.4,0.3-0.9,0.4-1.5s0.1-1.2,0.1-1.9v-7.4c0-2.3-0.4-4-1-5
	c-0.7-1.1-1.7-1.6-3.2-1.6c-0.9,0-1.8,0.2-2.6,0.6c-0.8,0.4-1.6,0.8-2.1,1.3V31c0,0.3,0,0.6,0,0.9c0,0.4,0,0.7,0,1.1s0,0.8-0.1,1.3
	s-0.1,0.8-0.1,1.2l3.4-0.2v4H51.3v-3.4c0.7,0,1.3-0.1,1.7-0.3c0.4-0.2,0.7-0.5,0.9-0.9c0.2-0.4,0.3-0.9,0.4-1.5
	c0.1-0.6,0.1-1.2,0.1-1.9V9.9c0-0.6,0-1.3,0-2.2s0.1-1.6,0.2-2.4l-3.7,0.2V1.6c1.2,0,2.3-0.1,3.2-0.2C55,1.3,55.8,1.2,56.5,1
	c0.7-0.2,1.2-0.3,1.6-0.5S58.8,0.1,59,0h2.8v15.3c0.5-0.4,1.1-0.8,1.7-1.1c0.7-0.3,1.3-0.7,2-0.9c0.7-0.3,1.4-0.5,2-0.6
	c0.7-0.2,1.3-0.2,1.8-0.2c1.6,0,2.9,0.2,4.1,0.7c1.1,0.4,2,1.1,2.7,2.1s1.2,2.1,1.5,3.6s0.5,3.2,0.5,5.2C78.1,24.1,78.1,31,78.1,31z
	"/>
<path class="st0" d="M85,19.3c0-1,0.3-2,0.9-2.8s1.3-1.6,2.3-2.2c1-0.6,2.2-1.1,3.5-1.4c1.3-0.3,2.8-0.5,4.3-0.5s2.9,0.2,4.1,0.6
	s2.2,1,3,1.8s1.5,1.8,1.9,3.1s0.6,2.7,0.6,4.5c0,0.9,0,1.7,0,2.3c0,0.7,0,1.3,0,1.9s0,1.3,0,1.9c0,0.7,0,1.5,0,2.3
	c0,0.3,0,0.6,0,0.9c0,0.4,0,0.7,0,1.1s0,0.8-0.1,1.3c0,0.4-0.1,0.8-0.1,1.2l3.4-0.2v4H99c-0.1-0.5-0.1-0.9-0.1-1.2s0-0.7-0.1-1.2
	h-0.1c-1.2,1.2-2.4,2-3.7,2.5c-1.3,0.5-2.6,0.7-4,0.7c-1.1,0-2.1-0.2-3-0.5s-1.6-0.8-2.2-1.5c-0.6-0.6-1.1-1.4-1.4-2.2
	s-0.5-1.8-0.5-2.8c0-1.1,0.2-2.1,0.6-3s0.9-1.7,1.6-2.4c0.7-0.7,1.5-1.3,2.4-1.8s1.9-0.9,3-1.3c1.1-0.3,2.2-0.6,3.4-0.8
	c1.2-0.2,2.3-0.3,3.5-0.4v-2.7c0-0.7-0.1-1.3-0.2-1.9c-0.1-0.6-0.3-1.1-0.6-1.5c-0.3-0.4-0.7-0.8-1.1-1c-0.5-0.2-1.1-0.3-1.8-0.3
	c-0.7,0-1.4,0.2-2,0.4c-0.6,0.3-1.1,0.6-1.6,1.1c0.3,0.3,0.4,0.6,0.5,1s0.1,0.7,0.1,0.9c0,0.4-0.1,0.8-0.2,1.1
	c-0.1,0.4-0.3,0.7-0.6,1c-0.3,0.3-0.7,0.6-1.1,0.8s-1,0.3-1.6,0.3c-0.5,0-1-0.1-1.4-0.3s-0.7-0.4-1-0.8c-0.3-0.3-0.5-0.7-0.6-1.1
	C85.1,20.3,85,19.8,85,19.3z M98.4,27.3c-1,0.1-1.9,0.3-2.8,0.5c-0.9,0.3-1.6,0.6-2.2,1s-1.1,0.9-1.5,1.5s-0.5,1.2-0.5,2
	c0,0.5,0.1,0.9,0.3,1.2c0.2,0.3,0.4,0.6,0.6,0.8c0.3,0.2,0.6,0.4,0.9,0.5s0.7,0.2,1.1,0.2c0.8,0,1.6-0.2,2.3-0.5
	c0.7-0.3,1.3-0.8,1.9-1.4L98.4,27.3z"/>
</svg>
